<?xml version="1.0" standalone="no"?>
<!DOCTYPE svg PUBLIC "-//W3C//DTD SVG 20010904//EN"
 "http://www.w3.org/TR/2001/REC-SVG-20010904/DTD/svg10.dtd">
<svg version="1.0" xmlns="http://www.w3.org/2000/svg"
 width="1280.000000pt" height="714.000000pt" viewBox="0 0 1280.000000 714.000000"
 preserveAspectRatio="xMidYMid meet">
<metadata>
Created by potrace 1.15, written by Peter Selinger 2001-2017
</metadata>
<g transform="translate(0.000000,714.000000) scale(0.100000,-0.100000)"
fill="#ff5722" stroke="none">
<path d="M3335 7134 c-122 -10 -371 -45 -484 -68 -1082 -220 -2011 -945 -2496
-1948 -180 -373 -283 -736 -337 -1183 -17 -144 -17 -586 0 -730 56 -463 164
-835 357 -1224 379 -760 1016 -1361 1800 -1696 299 -127 604 -209 960 -257
215 -30 638 -32 850 -4 455 58 804 164 1206 367 492 248 911 601 1247 1050 40
53 72 100 72 105 -1 5 -192 124 -425 265 l-424 257 -63 -82 c-90 -117 -286
-315 -408 -413 -298 -239 -639 -408 -1003 -497 -229 -56 -350 -70 -612 -71
-315 0 -528 33 -805 125 -1215 400 -1949 1623 -1730 2880 185 1067 1023 1905
2090 2090 440 77 899 38 1314 -112 221 -79 507 -235 689 -375 l59 -46 -292
-292 -292 -293 363 -6 c200 -3 620 -9 933 -12 l568 -6 -6 113 c-3 63 -8 368
-11 679 -3 311 -8 677 -11 814 l-7 248 -268 -268 -268 -267 -73 58 c-166 134
-263 202 -415 294 -433 260 -893 417 -1426 487 -108 14 -550 26 -652 18z"/>
<path d="M5305 4477 c-147 -39 -235 -126 -277 -276 -44 -155 -44 -1170 0
-1308 39 -122 97 -189 210 -241 48 -22 74 -27 172 -30 235 -9 359 60 421 233
18 50 22 89 26 243 l5 182 -106 0 -106 0 0 -132 c0 -250 -54 -338 -207 -338
-104 1 -176 52 -203 145 -16 58 -25 840 -11 1025 13 172 22 209 64 257 41 47
82 63 157 63 81 0 132 -26 162 -83 19 -36 23 -62 26 -184 l4 -143 105 0 105 0
-4 163 c-4 135 -8 171 -27 218 -31 82 -80 132 -167 176 -72 35 -81 37 -187 40
-69 1 -131 -3 -162 -10z"/>
<path d="M9530 4474 c-149 -40 -237 -140 -277 -314 -16 -66 -18 -140 -18 -620
0 -603 2 -626 66 -736 69 -122 170 -175 343 -182 173 -7 274 25 353 110 72 79
103 208 103 435 l0 112 -104 3 -103 3 -6 -145 c-3 -87 -12 -165 -21 -195 -28
-91 -90 -135 -191 -135 -95 0 -149 34 -188 120 -18 40 -21 73 -26 330 -8 337
2 803 19 877 26 115 101 169 224 161 127 -8 163 -63 173 -271 l6 -137 104 0
103 0 0 113 c-1 176 -26 284 -82 357 -33 42 -109 90 -176 110 -78 24 -220 26
-302 4z"/>
<path d="M6405 4458 c-2 -7 -27 -119 -54 -248 -28 -129 -105 -487 -171 -795
-67 -308 -131 -608 -144 -667 l-22 -108 118 0 c65 0 118 2 118 5 0 8 39 230
51 293 l10 52 213 0 213 0 29 -166 c16 -91 31 -170 35 -175 3 -6 53 -8 120 -7
l115 3 -201 910 -202 910 -111 3 c-85 2 -114 -1 -117 -10z m200 -791 c47 -245
85 -453 85 -461 0 -14 -23 -16 -170 -16 -93 0 -170 1 -170 3 0 1 36 202 80
447 44 245 80 454 80 464 0 11 2 17 5 15 2 -3 43 -206 90 -452z"/>
<path d="M7220 3556 l0 -916 115 0 115 0 0 374 0 374 183 4 c211 6 268 21 345
91 83 77 110 167 119 397 10 273 -22 399 -128 494 -87 78 -133 88 -466 94
l-283 5 0 -917z m479 694 c83 -12 129 -47 153 -116 14 -39 17 -86 18 -226 0
-188 -5 -216 -48 -261 -40 -41 -107 -57 -249 -57 l-123 0 0 335 0 335 93 0
c50 0 121 -5 156 -10z"/>
<path d="M8200 4465 c-1 -3 -1 -49 -1 -102 l-1 -98 171 -3 171 -2 0 -810 0
-810 115 0 115 0 0 810 0 810 170 0 170 0 0 105 0 105 -455 0 c-250 0 -455 -2
-455 -5z"/>
<path d="M10380 3555 l0 -916 113 3 112 3 3 423 2 422 205 0 205 0 0 -425 0
-425 115 0 115 0 -2 913 -3 912 -110 0 -110 0 -3 -387 -2 -388 -205 0 -205 0
-2 388 -3 387 -112 3 -113 3 0 -916z"/>
<path d="M11825 4458 c-2 -7 -43 -193 -90 -413 -85 -395 -146 -676 -245 -1135
-28 -129 -53 -243 -56 -252 -5 -17 5 -18 115 -18 67 0 121 4 121 8 0 10 36
217 51 290 l10 52 212 0 212 0 28 -157 c16 -87 31 -166 33 -175 5 -16 19 -18
120 -18 102 0 114 2 114 18 0 9 -89 420 -198 912 l-199 895 -112 3 c-84 2
-113 -1 -116 -10z m200 -792 c47 -246 85 -454 85 -461 0 -13 -28 -15 -170 -15
-93 0 -170 2 -170 3 0 2 31 177 69 388 38 211 75 419 82 461 7 43 14 76 16 74
2 -1 41 -204 88 -450z"/>
<path d="M12490 4453 c0 -7 11 -13 25 -13 24 0 25 -2 25 -70 0 -40 4 -70 10
-70 6 0 10 30 10 70 0 68 1 70 25 70 14 0 25 6 25 13 0 8 -19 12 -60 12 -41 0
-60 -4 -60 -12z"/>
<path d="M12637 4463 c-11 -18 -19 -163 -9 -163 13 0 22 34 23 90 l0 45 22
-64 c12 -36 27 -66 34 -68 6 -2 21 25 35 64 l23 68 3 -67 c2 -52 6 -68 18 -68
12 0 14 12 8 78 -10 113 -29 123 -60 29 -24 -75 -24 -75 -48 -6 -20 58 -37 81
-49 62z"/>
<path d="M3953 4086 c-232 -57 -373 -264 -373 -550 0 -272 130 -450 372 -512
89 -23 261 -15 343 16 97 37 189 103 250 182 30 38 55 74 55 79 0 5 -49 34
-110 64 l-109 55 -35 -54 c-38 -59 -75 -89 -137 -111 -153 -54 -318 50 -319
203 l0 42 365 0 366 0 -7 78 c-9 100 -36 206 -69 273 -57 111 -171 200 -300
234 -70 18 -219 18 -292 1z m233 -217 c17 -5 43 -23 59 -39 27 -28 68 -127 59
-142 -3 -5 -97 -8 -210 -8 -233 0 -224 -5 -178 89 51 101 149 137 270 100z"/>
<path d="M2530 3566 l0 -526 165 0 165 0 0 186 0 185 52 -3 52 -3 100 -182
100 -183 184 0 184 0 -14 23 c-94 147 -240 401 -233 404 6 2 32 16 60 31 138
76 184 262 103 422 -38 74 -92 121 -171 146 -43 14 -110 18 -399 22 l-348 4 0
-526z m582 280 c62 -41 61 -151 -1 -193 -30 -20 -46 -23 -142 -23 l-109 0 0
121 0 121 113 -4 c87 -3 118 -8 139 -22z"/>
</g>
</svg>
